# xmcd CD database file
#
# Track frame offsets:
#	150
#	41187
#	53088
#	82464
#	135845
#
# Disc length: 2192 seconds
#
# Revision: 0
# Processed by: cddbd v1.4PL0 Copyright (c) Steve Scherf et al.
# Submitted via: CDex 1.51
#
DISCID=40088e05
DTITLE=Hans Koller - Kunstkopfindianer
DYEAR=1974
DGENRE=Jazz
TTITLE0=Kunstkopfindianer
TTITLE1=Suomi
TTITLE2=Nom
TTITLE3=Ulla M. and 22/8
TTITLE4=Adea
EXTD=YEAR: 1974
EXTT0=
EXTT1=
EXTT2=
EXTT3=
EXTT4=
PLAYORDER=
